<?xml version="1.0" encoding="UTF-8"?>
<svg width="17px" height="16px" viewBox="0 0 17 16" version="1.1" xmlns="http://www.w3.org/2000/svg" xmlns:xlink="http://www.w3.org/1999/xlink">
    <!-- Generator: Sketch 52.4 (67378) - http://www.bohemiancoding.com/sketch -->
    <title>Fill 1</title>
    <desc>Created with Sketch.</desc>
    <g id="Hifi" stroke="none" stroke-width="1" fill="none" fill-rule="evenodd">
        <g id="Level-w/freeze" transform="translate(-124.000000, -376.000000)" fill="#47D2E6">
            <path d="M139.565525,383.334553 L138.003025,383.334553 L139.057725,382.279853 C139.253035,382.084543 139.253035,381.768153 139.057725,381.572803 C138.862415,381.377453 138.546025,381.377493 138.350675,381.572803 L136.588975,383.334503 L133.585075,383.334503 L134.751075,382.168503 L136.870225,382.168503 C137.145615,382.168503 137.370225,381.945848 137.370225,381.668503 C137.370225,381.391158 137.145615,381.168503 136.870225,381.168503 L135.751075,381.168503 L137.813575,379.106003 C138.008885,378.910693 138.008885,378.594303 137.813575,378.398953 C137.618265,378.203603 137.301875,378.203643 137.106525,378.398953 L135.045975,380.459503 L135.045975,379.342303 C135.045975,379.064958 134.821365,378.842303 134.545975,378.842303 C134.270585,378.842303 134.045975,379.064958 134.045975,379.342303 L134.045975,381.459503 L132.878025,382.627453 L132.878025,379.656753 L134.639725,377.895053 C134.835035,377.699743 134.835035,377.383353 134.639725,377.188003 C134.444415,376.992653 134.128025,376.992693 133.932675,377.188003 L132.877975,378.242703 L132.877975,376.647003 C132.877975,376.369658 132.653365,376.147003 132.377975,376.147003 C132.102585,376.147003 131.877975,376.369658 131.877975,376.647003 L131.877975,378.242703 L130.823275,377.188003 C130.627965,376.992693 130.311575,376.992693 130.116225,377.188003 C129.920875,377.383313 129.920915,377.699703 130.116225,377.895053 L131.877925,379.656753 L131.877925,382.627453 L130.733375,381.482903 L130.733375,379.363753 C130.733375,379.086408 130.508765,378.863753 130.233375,378.863753 C129.957985,378.863753 129.733375,379.086408 129.733375,379.363753 L129.733375,380.482903 L127.647425,378.396953 C127.452115,378.201638 127.135725,378.201638 126.940375,378.396953 C126.745065,378.592263 126.745065,378.908653 126.940375,379.104003 L129.024375,381.188003 L127.907175,381.188003 C127.631785,381.188003 127.407175,381.410658 127.407175,381.688003 C127.407175,381.965348 127.631785,382.188003 127.907175,382.188003 L130.024375,382.188003 L131.168925,383.332553 L128.198225,383.332553 L126.436525,381.570853 C126.241215,381.375543 125.924825,381.375543 125.729475,381.570853 C125.534125,381.766163 125.534165,382.082553 125.729475,382.277903 L126.784175,383.332603 L125.188475,383.332603 C124.913085,383.332603 124.688475,383.555258 124.688475,383.832603 C124.688475,384.109948 124.913085,384.332603 125.188475,384.332603 L126.784175,384.332603 L125.729475,385.387303 C125.534165,385.582613 125.534165,385.899003 125.729475,386.094353 C125.82713,386.192008 125.956035,386.240838 126.08299,386.240838 C126.209945,386.240838 126.33885,386.192008 126.436505,386.094353 L128.198205,384.332653 L131.168905,384.332653 L130.024355,385.477203 L127.907155,385.477203 C127.631765,385.477203 127.407155,385.699858 127.407155,385.977203 C127.407155,386.254548 127.631765,386.477203 127.907155,386.477203 L129.024355,386.477203 L126.940355,388.561203 C126.745045,388.756518 126.745045,389.072903 126.940355,389.268253 C127.03801,389.365908 127.166915,389.414738 127.29387,389.414738 C127.420825,389.414738 127.54973,389.365908 127.647385,389.268253 L129.733335,387.182303 L129.733335,388.301453 C129.733335,388.578798 129.957945,388.801453 130.233335,388.801453 C130.508725,388.801453 130.733335,388.578798 130.733335,388.301453 L130.733335,386.182303 L131.877885,385.037753 L131.877885,388.041653 L130.116185,389.803353 C129.920875,389.998663 129.920875,390.315053 130.116185,390.510403 C130.311495,390.705753 130.627885,390.705713 130.823235,390.510403 L131.877935,389.455703 L131.877935,391.018203 C131.877935,391.295548 132.102545,391.518203 132.377935,391.518203 C132.653325,391.518203 132.877935,391.295548 132.877935,391.018203 L132.877935,389.455703 L133.932635,390.510403 C134.03029,390.608058 134.159195,390.656888 134.28615,390.656888 C134.413105,390.656888 134.54201,390.608058 134.639665,390.510403 C134.834975,390.315093 134.834975,389.998703 134.639665,389.803353 L132.877965,388.041653 L132.877965,385.037753 L134.045915,386.205703 L134.045915,388.322903 C134.045915,388.600248 134.270525,388.822903 134.545915,388.822903 C134.821305,388.822903 135.045915,388.600248 135.045915,388.322903 L135.045915,387.205703 L137.106465,389.266253 C137.20412,389.363908 137.333025,389.412738 137.45998,389.412738 C137.586935,389.412738 137.71584,389.363908 137.813495,389.266253 C138.008805,389.070943 138.008805,388.754553 137.813495,388.559203 L135.750995,386.496703 L136.870145,386.496703 C137.145535,386.496703 137.370145,386.274048 137.370145,385.996703 C137.370145,385.719358 137.145535,385.496703 136.870145,385.496703 L134.750995,385.496703 L133.584995,384.330703 L136.588895,384.330703 L138.350595,386.092403 C138.44825,386.190058 138.577155,386.238888 138.70411,386.238888 C138.831065,386.238888 138.95997,386.190063 139.057625,386.092403 C139.252935,385.897093 139.252935,385.580703 139.057625,385.385353 L138.002925,384.330653 L139.565425,384.330653 C139.840815,384.330653 140.065425,384.107998 140.065425,383.830653 C140.065425,383.559168 139.840815,383.334558 139.565425,383.334558 L139.565525,383.334553 Z" id="Fill-1"></path>
        </g>
    </g>
</svg>