<?xml version="1.0" encoding="UTF-8"?>
<svg width="67px" height="67px" viewBox="0 0 67 67" version="1.1" xmlns="http://www.w3.org/2000/svg" xmlns:xlink="http://www.w3.org/1999/xlink">
    <!-- Generator: Sketch 51.3 (57544) - http://www.bohemiancoding.com/sketch -->
    <title>Shape</title>
    <desc>Created with Sketch.</desc>
    <defs></defs>
    <g id="Page-1" stroke="none" stroke-width="1" fill="none" fill-rule="evenodd">
        <path d="M36.0384615,25.401548 L36.0384615,30.478471 L30.9615385,30.478471 L30.9615385,25.401548 L30.9615385,20.324625 L36.0384615,20.324625 L36.0384615,25.401548 Z M36.0384615,15.247702 L41.1153846,15.247702 L41.1153846,20.324625 L41.1153846,25.401548 L41.1153846,30.478471 L41.1153846,35.555394 L46.1923077,35.555394 L46.1923077,30.478471 L46.1923077,25.401548 L51.2692308,25.401548 L51.2692308,30.478471 L51.2692308,35.555394 L51.2692308,40.632317 L51.2692308,45.70924 L56.3461538,45.70924 L56.3461538,50.786163 L61.4230769,50.786163 L61.4230769,45.70924 L61.4230769,40.632317 L61.4230769,35.555394 L66.5,35.555394 L66.5,40.632317 L66.5,45.70924 L66.5,50.786163 L66.5,55.863086 L66.5,60.940009 L66.5,66.016932 L61.4230769,66.016932 L61.4230769,60.940009 L56.3461538,60.940009 L56.3461538,55.863086 L51.2692308,55.863086 L46.1923077,55.863086 L46.1923077,60.940009 L41.1153846,60.940009 L36.0384615,60.940009 L30.9615385,60.940009 L25.8846154,60.940009 L20.8076923,60.940009 L20.8076923,55.863086 L15.7307692,55.863086 L10.6538462,55.863086 L10.6538462,60.940009 L5.57692308,60.940009 L5.57692308,66.016932 L0.5,66.016932 L0.5,60.940009 L0.5,55.863086 L0.5,50.786163 L0.5,45.70924 L0.5,40.632317 L0.5,35.555394 L5.57692308,35.555394 L5.57692308,40.632317 L5.57692308,45.70924 L5.57692308,50.786163 L10.6538462,50.786163 L10.6538462,45.70924 L15.7307692,45.70924 L15.7307692,40.632317 L15.7307692,35.555394 L15.7307692,30.478471 L15.7307692,25.401548 L20.8076923,25.401548 L20.8076923,30.478471 L20.8076923,35.555394 L25.8846154,35.555394 L25.8846154,30.478471 L25.8846154,25.401548 L25.8846154,20.324625 L25.8846154,15.247702 L30.9615385,15.247702 L30.9615385,10.170779 L30.9615385,5.093856 L30.9615385,0.016932 L36.0384615,0.016932 L36.0384615,5.093856 L36.0384615,10.170779 L36.0384615,15.247702 Z M30.9615385,20.324625 L30.9615385,25.401548 L30.9615385,30.478471 L36.0384615,30.478471 L36.0384615,25.401548 L36.0384615,20.324625 L30.9615385,20.324625 Z" id="Shape" fill="#F7332D" fill-rule="nonzero"></path>
    </g>
</svg>